<?xml version="1.0" standalone="no"?>
<!DOCTYPE svg PUBLIC "-//W3C//DTD SVG 20010904//EN"
 "http://www.w3.org/TR/2001/REC-SVG-20010904/DTD/svg10.dtd">
<svg version="1.0" xmlns="http://www.w3.org/2000/svg"
 width="88.000000pt" height="88.000000pt" viewBox="0 0 88.000000 88.000000"
 preserveAspectRatio="xMidYMid meet">
<metadata>
Created by potrace 1.14, written by Peter Selinger 2001-2017
</metadata>
<g transform="translate(0.000000,88.000000) scale(0.100000,-0.100000)"
fill="#000000" stroke="none">
<path d="M326 709 c-105 -104 -137 -141 -133 -155 3 -11 9 -53 13 -94 3 -41 8
-88 9 -105 2 -16 4 -35 4 -41 1 -6 22 -20 48 -32 216 -95 253 -109 260 -99 18
28 113 258 113 273 0 9 -7 28 -15 42 -19 34 -150 312 -157 332 -3 10 -48 -28
-142 -121z m212 -80 c45 -94 82 -175 82 -180 0 -5 -15 -41 -33 -81 -19 -40
-43 -94 -53 -121 -14 -34 -23 -46 -34 -41 -8 3 -70 29 -137 57 l-121 52 -6 45
c-3 25 -9 83 -12 129 l-7 84 114 113 c63 62 117 113 120 114 3 0 43 -77 87
-171z"/>
</g>
</svg>
