<?xml version="1.0" standalone="no"?>
<!DOCTYPE svg PUBLIC "-//W3C//DTD SVG 20010904//EN"
 "http://www.w3.org/TR/2001/REC-SVG-20010904/DTD/svg10.dtd">
<svg version="1.0" xmlns="http://www.w3.org/2000/svg"
 width="512.000000pt" height="512.000000pt" viewBox="0 0 512.000000 512.000000"
 preserveAspectRatio="xMidYMid meet">

<g transform="translate(0.000000,512.000000) scale(0.100000,-0.100000)"
fill="#000000" stroke="none">
<path d="M2447 5096 c-64 -27 -93 -47 -187 -133 -82 -75 -203 -165 -300 -225
-290 -178 -592 -270 -1005 -308 -83 -8 -154 -20 -197 -35 -174 -60 -305 -205
-353 -390 -13 -48 -17 -146 -22 -475 -8 -543 11 -869 72 -1233 133 -796 497
-1401 1105 -1834 295 -210 842 -463 1000 -463 90 0 330 91 595 225 279 141
471 272 682 464 349 317 611 755 747 1248 120 435 163 888 153 1608 -5 316 -9
413 -22 460 -48 185 -179 330 -353 390 -43 15 -114 27 -197 35 -563 51 -933
205 -1325 551 -111 98 -179 132 -270 136 -51 3 -77 -2 -123 -21z m219 -362
c406 -360 841 -542 1434 -599 122 -12 164 -20 200 -38 51 -27 104 -91 120
-145 16 -59 24 -786 11 -1017 -13 -217 -32 -406 -56 -555 -145 -885 -579
-1494 -1343 -1883 -181 -92 -425 -191 -472 -191 -19 0 -100 26 -180 58 -960
385 -1481 1034 -1639 2041 -48 308 -56 449 -55 990 1 360 4 522 13 552 16 59
68 123 121 150 36 18 78 26 200 38 593 57 1028 239 1434 599 53 47 101 86 106
86 5 0 53 -39 106 -86z"/>
<path d="M2495 3833 c-556 -30 -1025 -413 -1168 -953 -53 -196 -53 -444 0
-640 129 -486 524 -850 1015 -935 120 -21 316 -21 436 0 491 85 886 449 1015
935 54 203 53 446 -4 655 -95 349 -339 646 -664 807 -189 94 -423 142 -630
131z m229 -314 c183 -26 364 -119 513 -262 194 -187 294 -424 294 -697 0 -273
-99 -509 -294 -697 -192 -186 -411 -274 -677 -274 -266 0 -485 88 -677 274
-195 188 -294 423 -294 697 0 274 99 509 294 697 232 223 507 309 841 262z"/>
<path d="M2975 2986 c-16 -8 -165 -149 -330 -315 -165 -166 -304 -301 -309
-301 -6 0 -53 42 -106 94 -110 108 -139 121 -216 91 -81 -31 -119 -128 -80
-203 8 -15 86 -97 173 -184 130 -128 165 -158 195 -163 81 -15 78 -17 476 378
205 205 380 384 388 399 8 15 14 47 14 71 0 105 -110 176 -205 133z"/>
</g>
</svg>
